<?xml version="1.0" standalone="no"?>
<!DOCTYPE svg PUBLIC "-//W3C//DTD SVG 20010904//EN"
 "http://www.w3.org/TR/2001/REC-SVG-20010904/DTD/svg10.dtd">
<svg version="1.0" xmlns="http://www.w3.org/2000/svg"
 width="512.000000pt" height="512.000000pt" viewBox="0 0 512.000000 512.000000"
 preserveAspectRatio="xMidYMid meet">

<g transform="translate(0.000000,512.000000) scale(0.100000,-0.100000)"
fill="#000000" stroke="none">
<path d="M2517 5100 c-27 -21 -112 -168 -165 -285 -104 -232 -72 -402 91 -470
l37 -15 0 -135 0 -135 -114 0 c-170 0 -156 44 -156 -481 l0 -429 -280 0 -280
0 0 725 c0 712 0 725 -20 745 -25 25 -71 26 -101 1 l-24 -19 -3 -726 -2 -726
-28 -5 c-65 -13 -140 -39 -185 -63 -61 -33 -166 -144 -196 -208 -51 -105 -51
-108 -51 -598 l0 -461 -76 -13 c-182 -28 -330 -151 -396 -328 -22 -57 -22 -72
-26 -522 l-3 -462 -245 0 -245 0 -24 -25 c-29 -28 -32 -72 -11 -150 39 -148
138 -250 287 -296 59 -18 134 -19 2257 -19 1829 0 2206 3 2248 14 149 40 260
151 300 301 21 78 18 122 -11 150 l-24 25 -245 0 -245 0 -3 462 c-4 450 -4
465 -26 522 -66 177 -214 300 -396 328 l-75 12 -3 481 -3 480 -37 78 c-44 91
-132 190 -206 229 -44 24 -120 50 -184 63 l-27 5 -3 459 c-3 435 -4 460 -22
480 -25 27 -79 28 -106 1 -19 -19 -20 -33 -20 -480 l0 -460 -280 0 -280 0 0
429 c0 525 15 479 -158 483 l-117 3 -3 132 -3 131 35 12 c54 17 114 66 136
111 60 116 25 276 -118 531 -54 98 -89 138 -122 138 -10 0 -29 -9 -43 -20z
m108 -323 c46 -91 57 -123 58 -164 1 -84 -48 -136 -128 -136 -83 0 -133 63
-120 151 7 44 111 262 126 262 4 0 33 -51 64 -113z m135 -942 l0 -75 -200 0
-200 0 0 75 0 75 200 0 200 0 0 -75z m-2 -302 l3 -73 -201 0 -200 0 0 68 c0
38 3 72 7 76 4 3 93 5 197 4 l191 -3 3 -72z m0 -305 l3 -78 -201 0 -200 0 0
73 c0 41 3 77 7 81 4 3 93 5 197 4 l191 -3 3 -77z m-630 -682 c38 -20 61 -47
139 -166 107 -162 174 -210 293 -210 121 0 184 46 296 216 99 150 144 186 210
170 49 -13 75 -39 150 -153 125 -189 177 -228 309 -228 132 0 184 39 309 229
42 63 81 118 86 121 7 4 10 -118 10 -354 l0 -361 -1370 0 -1370 0 0 361 c0
236 3 358 10 354 5 -3 43 -56 84 -118 90 -136 133 -182 204 -214 44 -21 65
-24 120 -21 76 5 123 24 176 72 39 37 47 76 22 112 -13 18 -10 27 35 97 43 68
51 76 68 67 29 -15 60 -12 89 9 50 34 87 39 130 17z m-106 -1349 c28 -22 79
-86 150 -192 112 -168 167 -228 245 -267 40 -19 64 -23 143 -23 81 0 103 4
145 25 68 33 143 110 210 216 121 190 150 226 207 255 44 23 127 25 167 5 43
-23 103 -95 195 -234 142 -216 232 -278 391 -270 151 8 234 75 375 303 57 91
128 178 161 196 18 9 19 -1 19 -356 l0 -365 -205 0 c-205 0 -206 0 -230 -25
-14 -13 -25 -36 -25 -50 0 -14 11 -37 25 -50 l24 -25 470 0 470 0 -11 -32 c-6
-18 -33 -54 -59 -79 -85 -86 125 -79 -2329 -79 -2454 0 -2244 -7 -2329 79 -26
25 -53 61 -59 79 l-11 32 1765 0 1765 0 24 25 c32 31 32 69 0 100 l-24 25
-1501 0 -1500 0 0 365 c0 345 1 365 18 356 35 -19 92 -89 168 -206 142 -219
225 -285 369 -293 161 -8 247 52 400 282 108 163 119 176 170 210 31 21 50 26
101 26 55 0 67 -4 106 -33z"/>
<path d="M1517 5062 c-13 -14 -17 -39 -17 -109 0 -81 2 -92 23 -111 23 -22 51
-27 82 -16 55 21 63 211 11 246 -22 15 -83 8 -99 -10z"/>
<path d="M1832 4886 c-55 -54 -65 -68 -64 -96 1 -42 32 -73 72 -73 25 0 44 12
92 61 50 49 61 67 61 93 0 36 -40 79 -75 79 -11 0 -48 -27 -86 -64z"/>
<path d="M1189 4927 c-25 -19 -40 -55 -33 -81 3 -14 32 -50 64 -80 57 -55 84
-65 125 -50 16 7 45 54 45 74 0 7 -30 43 -67 81 -68 71 -98 84 -134 56z"/>
<path d="M1900 4580 c-30 -30 -27 -83 6 -109 21 -17 41 -21 95 -21 37 0 79 4
93 10 48 18 59 86 20 124 -12 12 -37 16 -105 16 -76 0 -92 -3 -109 -20z"/>
<path d="M1042 4574 c-16 -11 -22 -25 -22 -54 0 -67 35 -85 150 -78 81 4 104
20 104 72 0 61 -24 76 -123 76 -62 0 -93 -4 -109 -16z"/>
<path d="M3503 4550 c-34 -14 -43 -42 -43 -130 0 -73 3 -83 25 -105 13 -14 36
-25 50 -25 14 0 37 11 50 25 23 22 25 32 25 108 0 66 -4 89 -17 105 -21 25
-60 35 -90 22z"/>
<path d="M3793 4357 c-51 -51 -63 -70 -63 -95 0 -42 31 -72 73 -72 28 0 44 10
95 64 70 73 77 99 36 140 -42 42 -69 35 -141 -37z"/>
<path d="M3142 4387 c-39 -41 -29 -75 41 -145 71 -70 101 -78 142 -37 41 40
33 70 -38 142 -72 71 -107 81 -145 40z"/>
<path d="M1795 4315 c-40 -40 -33 -69 37 -141 51 -54 67 -64 95 -64 43 0 73
30 73 73 0 28 -10 44 -64 95 -72 70 -101 77 -141 37z"/>
<path d="M1223 4267 c-71 -72 -79 -102 -38 -142 41 -42 72 -34 143 38 70 71
80 107 39 145 -41 39 -73 29 -144 -41z"/>
<path d="M3860 4050 c-28 -28 -26 -71 6 -101 23 -21 35 -24 109 -24 68 0 87 4
104 19 25 23 28 72 5 104 -14 20 -23 22 -110 22 -81 0 -97 -3 -114 -20z"/>
<path d="M3000 4040 c-25 -25 -26 -71 -1 -101 18 -22 27 -24 111 -24 84 0 93
2 111 24 25 30 24 76 -1 101 -17 17 -33 20 -110 20 -77 0 -93 -3 -110 -20z"/>
<path d="M3769 3800 c-9 -5 -22 -23 -28 -39 -16 -38 0 -71 68 -134 54 -51 89
-59 128 -32 49 34 35 93 -37 159 -57 52 -97 66 -131 46z"/>
<path d="M3199 3753 c-47 -44 -79 -89 -79 -112 0 -24 53 -71 79 -71 33 0 108
62 141 116 19 30 21 38 10 65 -27 65 -83 66 -151 2z"/>
</g>
</svg>
